{"glyphs":{"0":{"ha":906,"x_min":76,"x_max":829,"o":"m 238 0 l 76 161 l 76 811 l 238 972 l 668 972 l 829 811 l 829 161 l 668 0 l 238 0 z m 326 161 l 579 161 l 640 222 l 640 750 l 579 811 l 326 811 l 265 750 l 265 222 l 326 161 z "},"1":{"ha":531,"x_min":35,"x_max":433,"o":"m 244 0 l 244 771 l 35 663 l 35 836 l 282 972 l 433 972 l 433 0 l 244 0 z "},"2":{"ha":797,"x_min":49,"x_max":749,"o":"m 54 0 l 54 213 l 554 667 l 554 765 l 508 811 l 283 811 l 238 765 l 238 667 l 49 667 l 49 822 l 199 972 l 593 972 l 743 822 l 743 611 l 250 172 l 250 158 l 749 158 l 749 0 l 54 0 z "},"3":{"ha":838,"x_min":49,"x_max":768,"o":"m 199 0 l 49 150 l 49 303 l 238 303 l 238 207 l 283 161 l 533 161 l 579 207 l 579 364 l 535 408 l 257 408 l 257 569 l 535 569 l 579 614 l 579 765 l 533 811 l 292 811 l 246 765 l 246 669 l 57 669 l 57 822 l 207 972 l 618 972 l 768 822 l 768 558 l 697 489 l 768 418 l 768 150 l 618 0 l 199 0 z "},"4":{"ha":804,"x_min":14,"x_max":790,"o":"m 483 0 l 483 181 l 14 181 l 14 371 l 446 972 l 672 972 l 672 342 l 790 342 l 790 181 l 672 181 l 672 0 l 483 0 z m 199 336 l 492 336 l 492 761 l 486 761 l 199 356 l 199 336 z "},"5":{"ha":842,"x_min":63,"x_max":779,"o":"m 213 0 l 63 150 l 63 308 l 251 308 l 251 207 l 297 161 l 544 161 l 590 207 l 590 426 l 544 472 l 76 472 l 76 972 l 760 972 l 760 811 l 263 811 l 263 633 l 628 633 l 779 482 l 779 150 l 629 0 l 213 0 z "},"6":{"ha":864,"x_min":76,"x_max":801,"o":"m 226 0 l 76 150 l 76 822 l 226 972 l 646 972 l 796 822 l 796 683 l 607 683 l 607 763 l 558 811 l 314 811 l 265 763 l 265 533 l 347 613 l 651 613 l 801 463 l 801 150 l 651 0 l 226 0 z m 314 161 l 564 161 l 613 210 l 613 403 l 564 451 l 367 451 l 265 347 l 265 210 l 314 161 z "},"7":{"ha":725,"x_min":7,"x_max":690,"o":"m 100 0 l 493 799 l 493 811 l 7 811 l 7 972 l 690 972 l 690 794 l 300 0 l 100 0 z "},"8":{"ha":886,"x_min":69,"x_max":817,"o":"m 219 0 l 69 150 l 69 414 l 157 501 l 83 575 l 83 822 l 233 972 l 653 972 l 803 822 l 803 575 l 729 501 l 817 414 l 817 150 l 667 0 l 219 0 z m 321 572 l 565 572 l 614 621 l 614 763 l 565 811 l 321 811 l 272 763 l 272 621 l 321 572 z m 307 161 l 579 161 l 628 210 l 628 365 l 579 414 l 307 414 l 258 365 l 258 210 l 307 161 z "},"9":{"ha":871,"x_min":69,"x_max":794,"o":"m 233 0 l 83 150 l 83 274 l 272 274 l 272 210 l 321 161 l 557 161 l 606 210 l 606 433 l 526 354 l 219 354 l 69 504 l 69 822 l 219 972 l 644 972 l 794 822 l 794 150 l 644 0 l 233 0 z m 307 515 l 515 515 l 606 606 l 606 763 l 557 811 l 307 811 l 258 763 l 258 564 l 307 515 z "}," ":{"ha":378,"x_min":0,"x_max":0,"o":""},"!":{"ha":381,"x_min":83,"x_max":297,"o":"m 118 281 l 96 786 l 96 972 l 285 972 l 285 786 l 263 281 l 118 281 z m 143 0 l 83 60 l 83 143 l 143 203 l 238 203 l 297 143 l 297 60 l 238 0 l 143 0 z "},"\"":{"ha":639,"x_min":83,"x_max":556,"o":"m 106 611 l 83 814 l 83 972 l 272 972 l 272 814 l 250 611 l 106 611 z m 389 611 l 367 814 l 367 972 l 556 972 l 556 814 l 533 611 l 389 611 z "},"#":{"ha":996,"x_min":56,"x_max":940,"o":"m 940 578 l 774 578 l 743 400 l 913 400 l 913 242 l 715 242 l 674 0 l 490 0 l 532 242 l 378 242 l 336 0 l 153 0 l 194 242 l 56 242 l 56 400 l 222 400 l 253 578 l 83 578 l 83 736 l 281 736 l 321 972 l 504 972 l 464 736 l 618 736 l 658 972 l 842 972 l 801 736 l 940 736 l 940 578 z m 560 400 l 590 578 l 436 578 l 406 400 l 560 400 z "},"$":{"ha":885,"x_min":69,"x_max":822,"o":"m 672 576 l 822 426 l 822 153 l 669 0 l 528 0 l 528 -153 l 369 -153 l 369 0 l 219 0 l 69 150 l 69 289 l 256 289 l 256 207 l 301 161 l 369 161 l 369 415 l 222 415 l 72 565 l 72 822 l 222 972 l 369 972 l 369 1125 l 528 1125 l 528 972 l 661 972 l 811 822 l 811 682 l 625 682 l 625 765 l 579 811 l 528 811 l 528 576 l 672 576 z m 304 576 l 369 576 l 369 811 l 304 811 l 258 765 l 258 622 l 304 576 z m 636 208 l 636 369 l 590 415 l 528 415 l 528 161 l 589 161 l 636 208 z "},"%":{"ha":1215,"x_min":56,"x_max":1160,"o":"m 167 461 l 56 572 l 56 861 l 167 972 l 408 972 l 519 861 l 519 572 l 408 461 l 167 461 z m 247 0 l 779 972 l 968 972 l 436 0 l 247 0 z m 247 600 l 328 600 l 358 631 l 358 803 l 328 833 l 247 833 l 217 803 l 217 631 l 247 600 z m 807 0 l 696 111 l 696 400 l 807 511 l 1049 511 l 1160 400 l 1160 111 l 1049 0 l 807 0 z m 888 139 l 968 139 l 999 169 l 999 342 l 968 372 l 888 372 l 857 342 l 857 169 l 888 139 z "},"&":{"ha":919,"x_min":69,"x_max":906,"o":"m 218 0 l 69 149 l 69 413 l 156 500 l 110 547 l 110 822 l 258 972 l 631 972 l 776 825 l 776 722 l 593 722 l 593 767 l 550 811 l 336 811 l 293 767 l 293 606 l 339 558 l 636 558 l 636 650 l 814 650 l 814 558 l 906 558 l 906 400 l 817 400 l 817 150 l 668 0 l 218 0 z m 299 161 l 588 161 l 633 208 l 633 400 l 299 400 l 253 354 l 253 207 l 299 161 z "},"'":{"ha":356,"x_min":83,"x_max":272,"o":"m 106 611 l 83 814 l 83 972 l 272 972 l 272 814 l 250 611 l 106 611 z "},"(":{"ha":483,"x_min":90,"x_max":463,"o":"m 268 -162 l 90 15 l 90 956 l 268 1133 l 463 1133 l 463 975 l 357 975 l 274 892 l 274 79 l 357 -4 l 463 -4 l 463 -162 l 268 -162 z "},")":{"ha":483,"x_min":21,"x_max":393,"o":"m 215 -162 l 21 -162 l 21 -4 l 126 -4 l 210 79 l 210 892 l 126 975 l 21 975 l 21 1133 l 215 1133 l 393 956 l 393 15 l 215 -162 z "},"*":{"ha":485,"x_min":56,"x_max":429,"o":"m 183 613 l 200 724 l 107 650 l 56 747 l 176 792 l 56 839 l 107 936 l 200 861 l 183 972 l 301 972 l 285 861 l 378 936 l 429 839 l 308 792 l 429 747 l 378 650 l 285 724 l 301 613 l 183 613 z "},"+":{"ha":783,"x_min":56,"x_max":728,"o":"m 728 444 l 728 289 l 483 289 l 483 68 l 300 68 l 300 289 l 56 289 l 56 444 l 300 444 l 300 665 l 483 665 l 483 444 l 728 444 z "},",":{"ha":331,"x_min":53,"x_max":275,"o":"m 88 -186 l 143 0 l 113 0 l 53 60 l 53 149 l 113 208 l 217 208 l 275 147 l 275 0 l 196 -186 l 88 -186 z "},"-":{"ha":600,"x_min":56,"x_max":544,"o":"m 56 278 l 56 436 l 544 436 l 544 278 l 56 278 z "},".":{"ha":331,"x_min":56,"x_max":275,"o":"m 115 0 l 56 60 l 56 149 l 115 208 l 217 208 l 275 147 l 275 61 l 217 0 l 115 0 z "},"/":{"ha":725,"x_min":0,"x_max":725,"o":"m 0 0 l 536 972 l 725 972 l 189 0 l 0 0 z "},":":{"ha":322,"x_min":56,"x_max":267,"o":"m 113 439 l 56 496 l 56 582 l 113 639 l 211 639 l 267 581 l 267 497 l 211 439 l 113 439 z m 113 0 l 56 57 l 56 143 l 113 200 l 211 200 l 267 142 l 267 58 l 211 0 l 113 0 z "},";":{"ha":322,"x_min":56,"x_max":278,"o":"m 115 439 l 58 496 l 58 582 l 115 639 l 214 639 l 269 581 l 269 497 l 214 439 l 115 439 z m 90 -186 l 146 0 l 115 0 l 56 60 l 56 149 l 115 208 l 219 208 l 278 147 l 278 0 l 199 -186 l 90 -186 z "},"<":{"ha":853,"x_min":56,"x_max":811,"o":"m 811 0 l 56 324 l 56 482 l 811 794 l 811 614 l 281 407 l 281 399 l 811 181 l 811 0 z "},"=":{"ha":783,"x_min":56,"x_max":728,"o":"m 56 411 l 56 567 l 728 567 l 728 411 l 56 411 z m 56 167 l 56 322 l 728 322 l 728 167 l 56 167 z "},">":{"ha":853,"x_min":56,"x_max":811,"o":"m 56 0 l 56 181 l 586 399 l 586 407 l 56 614 l 56 794 l 811 482 l 811 324 l 56 0 z "},"?":{"ha":781,"x_min":35,"x_max":725,"o":"m 289 265 l 289 436 l 539 678 l 539 740 l 468 811 l 286 811 l 221 746 l 221 667 l 35 667 l 35 803 l 204 972 l 550 972 l 725 797 l 725 622 l 472 378 l 472 265 l 289 265 z m 333 0 l 274 60 l 274 143 l 333 203 l 428 203 l 488 143 l 488 60 l 428 0 l 333 0 z "},"@":{"ha":1160,"x_min":56,"x_max":1104,"o":"m 769 146 l 704 211 l 704 239 l 607 146 l 444 146 l 313 278 l 313 525 l 446 658 l 615 658 l 685 589 l 685 653 l 815 653 l 815 282 l 881 282 l 946 350 l 946 558 l 756 749 l 421 749 l 217 544 l 217 271 l 418 69 l 992 69 l 992 -72 l 333 -72 l 56 206 l 56 610 l 336 890 l 832 890 l 1104 618 l 1104 300 l 950 146 l 769 146 z m 654 349 l 654 471 l 606 519 l 517 519 l 476 479 l 476 329 l 518 288 l 593 288 l 654 349 z "},"A":{"ha":897,"x_min":7,"x_max":890,"o":"m 7 0 l 363 972 l 535 972 l 890 0 l 699 0 l 619 215 l 278 215 l 199 0 l 7 0 z m 321 371 l 578 371 l 449 740 l 446 740 l 321 371 z "},"B":{"ha":931,"x_min":90,"x_max":882,"o":"m 90 0 l 90 972 l 700 972 l 839 833 l 839 561 l 783 504 l 882 404 l 882 150 l 732 0 l 90 0 z m 275 565 l 603 565 l 653 615 l 653 765 l 604 814 l 275 814 l 275 565 z m 275 158 l 636 158 l 696 218 l 696 354 l 636 414 l 275 414 l 275 158 z "},"C":{"ha":910,"x_min":76,"x_max":868,"o":"m 236 0 l 76 160 l 76 813 l 236 972 l 711 972 l 868 815 l 868 667 l 679 667 l 679 746 l 614 811 l 336 811 l 265 740 l 265 232 l 336 161 l 614 161 l 679 226 l 679 306 l 868 306 l 868 157 l 711 0 l 236 0 z "},"D":{"ha":956,"x_min":90,"x_max":879,"o":"m 90 0 l 90 972 l 713 972 l 879 806 l 879 167 l 713 0 l 90 0 z m 279 161 l 619 161 l 690 232 l 690 740 l 619 811 l 279 811 l 279 161 z "},"E":{"ha":842,"x_min":90,"x_max":793,"o":"m 90 0 l 90 972 l 793 972 l 793 813 l 279 813 l 279 567 l 753 567 l 753 410 l 279 410 l 279 160 l 793 160 l 793 0 l 90 0 z "},"F":{"ha":800,"x_min":90,"x_max":779,"o":"m 90 0 l 90 972 l 779 972 l 779 813 l 279 813 l 279 543 l 713 543 l 713 383 l 279 383 l 279 0 l 90 0 z "},"G":{"ha":939,"x_min":76,"x_max":876,"o":"m 236 0 l 76 160 l 76 813 l 236 972 l 719 972 l 876 815 l 876 667 l 688 667 l 688 746 l 622 811 l 336 811 l 265 740 l 265 232 l 336 161 l 625 161 l 693 229 l 693 381 l 485 381 l 485 542 l 876 542 l 876 160 l 717 0 l 236 0 z "},"H":{"ha":969,"x_min":90,"x_max":879,"o":"m 90 0 l 90 972 l 279 972 l 279 565 l 690 565 l 690 972 l 879 972 l 879 0 l 690 0 l 690 404 l 279 404 l 279 0 l 90 0 z "},"I":{"ha":383,"x_min":97,"x_max":286,"o":"m 97 0 l 97 972 l 286 972 l 286 0 l 97 0 z "},"J":{"ha":806,"x_min":28,"x_max":722,"o":"m 194 0 l 28 168 l 28 349 l 211 349 l 211 232 l 282 161 l 467 161 l 533 226 l 533 972 l 722 972 l 722 163 l 560 0 l 194 0 z "},"K":{"ha":904,"x_min":90,"x_max":897,"o":"m 90 0 l 90 972 l 279 972 l 279 565 l 426 565 l 661 972 l 874 972 l 589 488 l 897 0 l 681 0 l 425 404 l 279 404 l 279 0 l 90 0 z "},"L":{"ha":779,"x_min":90,"x_max":765,"o":"m 90 0 l 90 972 l 279 972 l 279 160 l 765 160 l 765 0 l 90 0 z "},"M":{"ha":1113,"x_min":90,"x_max":1022,"o":"m 90 0 l 90 972 l 265 972 l 554 344 l 557 344 l 847 972 l 1022 972 l 1022 0 l 840 0 l 840 592 l 838 592 l 614 136 l 497 136 l 275 592 l 272 592 l 272 0 l 90 0 z "},"N":{"ha":968,"x_min":90,"x_max":878,"o":"m 90 0 l 90 972 l 260 972 l 693 313 l 696 313 l 696 972 l 878 972 l 878 0 l 708 0 l 275 658 l 272 658 l 272 0 l 90 0 z "},"O":{"ha":972,"x_min":76,"x_max":896,"o":"m 236 0 l 76 160 l 76 813 l 236 972 l 736 972 l 896 813 l 896 160 l 736 0 l 236 0 z m 336 161 l 636 161 l 707 232 l 707 740 l 636 811 l 336 811 l 265 740 l 265 232 l 336 161 z "},"P":{"ha":897,"x_min":90,"x_max":849,"o":"m 90 0 l 90 972 l 700 972 l 849 822 l 849 482 l 699 331 l 279 331 l 279 0 l 90 0 z m 279 489 l 614 489 l 663 538 l 663 765 l 614 814 l 279 814 l 279 489 z "},"Q":{"ha":972,"x_min":76,"x_max":925,"o":"m 793 57 l 925 -78 l 808 -194 l 613 0 l 236 0 l 76 160 l 76 813 l 236 972 l 736 972 l 896 813 l 896 160 l 793 57 z m 336 161 l 636 161 l 707 232 l 707 740 l 636 811 l 336 811 l 265 740 l 265 232 l 336 161 z "},"R":{"ha":938,"x_min":90,"x_max":854,"o":"m 754 432 l 854 322 l 854 0 l 665 0 l 665 279 l 582 372 l 279 372 l 279 0 l 90 0 l 90 972 l 700 972 l 849 822 l 849 528 l 754 432 z m 279 814 l 279 528 l 614 528 l 663 576 l 663 765 l 614 814 l 279 814 z "},"S":{"ha":885,"x_min":69,"x_max":822,"o":"m 219 0 l 69 150 l 69 289 l 256 289 l 256 207 l 301 161 l 589 161 l 636 208 l 636 369 l 590 415 l 222 415 l 72 565 l 72 822 l 222 972 l 661 972 l 811 822 l 811 682 l 625 682 l 625 765 l 579 811 l 304 811 l 258 765 l 258 622 l 304 576 l 672 576 l 822 426 l 822 153 l 669 0 l 219 0 z "},"T":{"ha":811,"x_min":21,"x_max":790,"o":"m 311 0 l 311 813 l 21 813 l 21 972 l 790 972 l 790 813 l 500 813 l 500 0 l 311 0 z "},"U":{"ha":972,"x_min":90,"x_max":882,"o":"m 257 0 l 90 167 l 90 972 l 279 972 l 279 232 l 350 161 l 622 161 l 693 232 l 693 972 l 882 972 l 882 167 l 715 0 l 257 0 z "},"V":{"ha":903,"x_min":14,"x_max":889,"o":"m 360 0 l 14 972 l 208 972 l 450 225 l 453 225 l 694 972 l 889 972 l 543 0 l 360 0 z "},"W":{"ha":1221,"x_min":35,"x_max":1186,"o":"m 236 0 l 35 972 l 225 972 l 343 286 l 349 286 l 542 972 l 683 972 l 872 286 l 878 286 l 996 972 l 1186 972 l 985 0 l 808 0 l 615 683 l 610 683 l 413 0 l 236 0 z "},"X":{"ha":906,"x_min":7,"x_max":899,"o":"m 7 0 l 346 501 l 21 972 l 233 972 l 453 653 l 672 972 l 885 972 l 560 496 l 899 0 l 686 0 l 453 343 l 219 0 l 7 0 z "},"Y":{"ha":881,"x_min":0,"x_max":881,"o":"m 346 0 l 346 397 l 0 972 l 207 972 l 439 574 l 442 574 l 674 972 l 881 972 l 535 397 l 535 0 l 346 0 z "},"Z":{"ha":822,"x_min":49,"x_max":774,"o":"m 49 0 l 49 150 l 547 811 l 547 814 l 63 814 l 63 972 l 774 972 l 774 822 l 275 161 l 275 158 l 774 158 l 774 0 l 49 0 z "},"[":{"ha":478,"x_min":90,"x_max":457,"o":"m 90 -162 l 90 1133 l 457 1133 l 457 975 l 274 975 l 274 -4 l 457 -4 l 457 -162 l 90 -162 z "},"\\":{"ha":746,"x_min":0,"x_max":746,"o":"m 557 0 l 0 972 l 190 972 l 746 0 l 557 0 z "},"]":{"ha":478,"x_min":21,"x_max":388,"o":"m 388 -162 l 21 -162 l 21 -4 l 204 -4 l 204 975 l 21 975 l 21 1133 l 388 1133 l 388 -162 z "},"^":{"ha":913,"x_min":56,"x_max":857,"o":"m 56 339 l 368 972 l 540 972 l 857 339 l 665 339 l 458 768 l 450 768 l 247 339 l 56 339 z "},"_":{"ha":669,"x_min":0,"x_max":669,"o":"m 0 -169 l 0 -14 l 669 -14 l 669 -169 l 0 -169 z "},"`":{"ha":333,"x_min":18,"x_max":317,"o":"m 156 756 l 18 990 l 211 990 l 317 756 l 156 756 z "},"a":{"ha":799,"x_min":63,"x_max":722,"o":"m 190 0 l 63 128 l 63 286 l 190 414 l 542 414 l 542 501 l 499 544 l 290 544 l 249 501 l 249 463 l 68 463 l 68 542 l 217 692 l 574 692 l 722 542 l 722 0 l 557 0 l 557 99 l 454 0 l 190 0 z m 278 142 l 442 142 l 542 238 l 542 283 l 281 283 l 243 246 l 243 176 l 278 142 z "},"b":{"ha":833,"x_min":83,"x_max":764,"o":"m 232 0 l 83 150 l 83 992 l 267 992 l 267 596 l 368 692 l 621 692 l 764 547 l 764 144 l 621 0 l 232 0 z m 319 156 l 528 156 l 581 210 l 581 482 l 528 536 l 392 536 l 267 411 l 267 210 l 319 156 z "},"c":{"ha":775,"x_min":69,"x_max":733,"o":"m 210 0 l 69 142 l 69 550 l 210 692 l 590 692 l 733 547 l 733 419 l 550 419 l 550 488 l 501 536 l 301 536 l 253 488 l 253 204 l 301 156 l 501 156 l 550 204 l 550 272 l 733 272 l 733 144 l 590 0 l 210 0 z "},"d":{"ha":836,"x_min":69,"x_max":753,"o":"m 213 0 l 69 144 l 69 547 l 213 692 l 488 692 l 569 621 l 569 992 l 753 992 l 753 0 l 581 0 l 581 107 l 474 0 l 213 0 z m 306 156 l 457 156 l 569 271 l 569 451 l 475 536 l 306 536 l 253 482 l 253 210 l 306 156 z "},"e":{"ha":810,"x_min":69,"x_max":747,"o":"m 210 0 l 69 142 l 69 547 l 213 692 l 603 692 l 747 547 l 747 285 l 253 285 l 253 196 l 297 150 l 524 150 l 565 193 l 565 229 l 746 229 l 746 139 l 608 0 l 210 0 z m 253 413 l 564 413 l 564 493 l 517 542 l 300 542 l 253 493 l 253 413 z "},"f":{"ha":556,"x_min":21,"x_max":542,"o":"m 146 0 l 146 538 l 21 538 l 21 692 l 146 692 l 146 829 l 286 969 l 542 969 l 542 818 l 365 818 l 326 779 l 326 692 l 542 692 l 542 538 l 329 538 l 329 0 l 146 0 z "},"g":{"ha":836,"x_min":69,"x_max":753,"o":"m 583 692 l 753 692 l 753 -158 l 603 -307 l 226 -307 l 97 -179 l 97 -85 l 281 -85 l 281 -126 l 307 -154 l 522 -154 l 569 -106 l 569 90 l 474 0 l 213 0 l 69 144 l 69 547 l 213 692 l 485 692 l 583 597 l 583 692 z m 569 271 l 569 451 l 475 536 l 306 536 l 253 482 l 253 210 l 306 156 l 457 156 l 569 271 z "},"h":{"ha":825,"x_min":83,"x_max":749,"o":"m 83 0 l 83 992 l 267 992 l 267 585 l 374 692 l 594 692 l 749 538 l 749 0 l 565 0 l 565 488 l 518 536 l 399 536 l 267 403 l 267 0 l 83 0 z "},"i":{"ha":378,"x_min":76,"x_max":301,"o":"m 140 772 l 76 836 l 76 925 l 140 989 l 238 989 l 301 925 l 301 836 l 238 772 l 140 772 z m 97 0 l 97 692 l 281 692 l 281 0 l 97 0 z "},"j":{"ha":399,"x_min":-90,"x_max":322,"o":"m 161 772 l 97 836 l 97 925 l 161 989 l 258 989 l 322 925 l 322 836 l 258 772 l 161 772 z m -90 -303 l -90 -147 l 69 -147 l 118 -99 l 118 692 l 301 692 l 301 -154 l 153 -303 l -90 -303 z "},"k":{"ha":788,"x_min":83,"x_max":781,"o":"m 83 0 l 83 992 l 267 992 l 267 438 l 388 438 l 564 692 l 767 692 l 536 358 l 781 0 l 578 0 l 383 282 l 267 282 l 267 0 l 83 0 z "},"l":{"ha":364,"x_min":90,"x_max":274,"o":"m 90 0 l 90 992 l 274 992 l 274 0 l 90 0 z "},"m":{"ha":1196,"x_min":83,"x_max":1119,"o":"m 83 0 l 83 692 l 253 692 l 253 578 l 365 692 l 540 692 l 635 596 l 729 692 l 971 692 l 1119 542 l 1119 0 l 936 0 l 936 488 l 889 536 l 772 536 l 699 463 l 699 0 l 521 0 l 521 490 l 476 536 l 393 536 l 267 408 l 267 0 l 83 0 z "},"n":{"ha":822,"x_min":83,"x_max":746,"o":"m 83 0 l 83 692 l 253 692 l 253 576 l 368 692 l 592 692 l 746 538 l 746 0 l 563 0 l 563 488 l 515 536 l 399 536 l 267 403 l 267 0 l 83 0 z "},"o":{"ha":822,"x_min":69,"x_max":753,"o":"m 213 0 l 69 144 l 69 547 l 213 692 l 610 692 l 753 547 l 753 144 l 610 0 l 213 0 z m 301 153 l 521 153 l 569 201 l 569 490 l 521 539 l 301 539 l 253 490 l 253 201 l 301 153 z "},"p":{"ha":836,"x_min":83,"x_max":767,"o":"m 83 -294 l 83 692 l 253 692 l 253 590 l 354 692 l 624 692 l 767 547 l 767 144 l 624 0 l 356 0 l 267 74 l 267 -294 l 83 -294 z m 376 156 l 535 156 l 583 204 l 583 488 l 535 536 l 378 536 l 267 424 l 267 254 l 376 156 z "},"q":{"ha":826,"x_min":69,"x_max":750,"o":"m 567 -294 l 567 99 l 468 0 l 213 0 l 69 144 l 69 547 l 213 692 l 601 692 l 750 542 l 750 -294 l 567 -294 z m 300 156 l 443 156 l 567 288 l 567 488 l 519 536 l 300 536 l 253 488 l 253 204 l 300 156 z "},"r":{"ha":568,"x_min":83,"x_max":561,"o":"m 83 0 l 83 692 l 253 692 l 253 576 l 364 692 l 561 692 l 561 536 l 401 536 l 267 397 l 267 0 l 83 0 z "},"s":{"ha":744,"x_min":49,"x_max":696,"o":"m 183 0 l 49 136 l 49 221 l 229 221 l 229 182 l 260 150 l 485 150 l 515 182 l 515 242 l 483 275 l 185 275 l 54 407 l 54 558 l 186 692 l 547 692 l 682 556 l 682 471 l 501 471 l 501 510 l 471 542 l 265 542 l 235 510 l 235 456 l 267 422 l 565 422 l 696 290 l 696 133 l 564 0 l 183 0 z "},"t":{"ha":575,"x_min":21,"x_max":540,"o":"m 289 0 l 146 142 l 146 538 l 21 538 l 21 692 l 149 692 l 149 917 l 329 917 l 329 692 l 540 692 l 540 536 l 329 536 l 329 201 l 376 156 l 540 156 l 540 0 l 289 0 z "},"u":{"ha":821,"x_min":76,"x_max":738,"o":"m 222 0 l 76 146 l 76 692 l 260 692 l 260 203 l 307 156 l 418 156 l 554 292 l 554 692 l 738 692 l 738 0 l 568 0 l 568 118 l 449 0 l 222 0 z "},"v":{"ha":708,"x_min":0,"x_max":708,"o":"m 265 0 l 0 692 l 190 692 l 351 210 l 357 210 l 518 692 l 708 692 l 443 0 l 265 0 z "},"w":{"ha":1013,"x_min":28,"x_max":985,"o":"m 194 0 l 28 692 l 214 692 l 293 256 l 299 256 l 424 692 l 590 692 l 706 256 l 711 256 l 799 692 l 985 692 l 806 0 l 635 0 l 507 467 l 501 467 l 365 0 l 194 0 z "},"x":{"ha":733,"x_min":7,"x_max":726,"o":"m 726 0 l 519 0 l 367 211 l 214 0 l 7 0 l 265 351 l 14 692 l 221 692 l 367 489 l 513 692 l 719 692 l 469 349 l 726 0 z "},"y":{"ha":824,"x_min":76,"x_max":740,"o":"m 557 692 l 740 692 l 740 -158 l 590 -307 l 226 -307 l 97 -179 l 97 -85 l 281 -85 l 281 -126 l 307 -154 l 510 -154 l 557 -106 l 557 103 l 454 0 l 225 0 l 76 150 l 76 692 l 260 692 l 260 204 l 307 156 l 428 156 l 557 293 l 557 692 z "},"z":{"ha":692,"x_min":35,"x_max":657,"o":"m 35 0 l 35 142 l 419 540 l 419 543 l 49 543 l 49 692 l 657 692 l 657 550 l 272 151 l 272 149 l 657 149 l 657 0 l 35 0 z "},"{":{"ha":524,"x_min":42,"x_max":503,"o":"m 297 -162 l 150 -15 l 150 331 l 42 442 l 42 531 l 150 642 l 150 986 l 297 1133 l 503 1133 l 503 975 l 381 975 l 333 928 l 333 596 l 232 492 l 232 481 l 333 376 l 333 43 l 381 -4 l 503 -4 l 503 -162 l 297 -162 z "},"|":{"ha":367,"x_min":90,"x_max":276,"o":"m 90 -283 l 90 1175 l 276 1175 l 276 -283 l 90 -283 z "},"}":{"ha":524,"x_min":21,"x_max":482,"o":"m 226 -162 l 21 -162 l 21 -4 l 143 -4 l 190 43 l 190 376 l 292 481 l 292 492 l 190 596 l 190 928 l 143 975 l 21 975 l 21 1133 l 226 1133 l 374 986 l 374 642 l 482 531 l 482 442 l 374 331 l 374 -15 l 226 -162 z "},"~":{"ha":814,"x_min":56,"x_max":758,"o":"m 474 228 l 293 363 l 269 363 l 236 328 l 236 242 l 56 242 l 56 381 l 201 528 l 340 528 l 521 393 l 539 393 l 578 433 l 578 514 l 758 514 l 758 375 l 613 228 l 474 228 z "}}}
